<svg width="48" height="48" viewBox="0 0 48 48" fill="none" xmlns="http://www.w3.org/2000/svg">
<path d="M24.0169 10.7588C24.1009 9.59471 24.4854 8.47231 25.1327 7.50116C25.78 6.53001 26.668 5.74329 27.7101 5.2178C28.7522 4.6923 29.9128 4.44599 31.0785 4.50291C32.2442 4.55982 33.3753 4.91802 34.3612 5.54253C34.474 5.61629 34.5648 5.71905 34.6241 5.84001C34.6833 5.96096 34.709 6.09566 34.6982 6.22994C34.6875 6.36423 34.6408 6.49314 34.563 6.60313C34.4852 6.71312 34.3793 6.80014 34.2562 6.85503C32.5423 7.62617 31.0874 8.87571 30.0663 10.4536C29.0452 12.0315 28.5013 13.8706 28.5 15.75C28.5 15.9694 28.5 16.1888 28.5225 16.4044C28.5328 16.5407 28.5057 16.6772 28.4441 16.7992C28.3825 16.9212 28.2887 17.0241 28.1729 17.0967C28.0571 17.1692 27.9236 17.2088 27.787 17.211C27.6503 17.2133 27.5156 17.1781 27.3975 17.1094C26.2925 16.4774 25.3888 15.5457 24.7906 14.422C24.1924 13.2983 23.9242 12.0284 24.0169 10.7588ZM45 30.1144C45.0027 30.9715 44.7652 31.8123 44.3145 32.5413C43.8638 33.2704 43.2179 33.8587 42.45 34.2394L42.3675 34.2769L35.0869 37.3782C35.0149 37.4099 34.9402 37.435 34.8638 37.4532L22.8638 40.4532C22.7449 40.4837 22.6227 40.4995 22.5 40.5H3C2.20435 40.5 1.44129 40.184 0.87868 39.6214C0.316071 39.0587 0 38.2957 0 37.5V30C0 29.2044 0.316071 28.4413 0.87868 27.8787C1.44129 27.3161 2.20435 27 3 27H8.37937L12.6206 22.7569C13.1768 22.1983 13.8381 21.7554 14.5664 21.4539C15.2947 21.1523 16.0755 20.9981 16.8638 21H26.25C27.0423 20.9999 27.8244 21.1792 28.5376 21.5244C29.2508 21.8695 29.8766 22.3716 30.3681 22.993C30.8597 23.6144 31.2042 24.3391 31.3759 25.1126C31.5475 25.8861 31.5419 26.6884 31.3594 27.4594L39.2044 25.6557C39.8873 25.4748 40.6027 25.4532 41.2953 25.5925C41.9879 25.7317 42.6393 26.0282 43.1993 26.459C43.7592 26.8898 44.2128 27.4434 44.525 28.0772C44.8372 28.7109 44.9997 29.4079 45 30.1144ZM42 30.1144C41.9998 29.8664 41.9424 29.6218 41.8323 29.3995C41.7223 29.1773 41.5625 28.9833 41.3654 28.8328C41.1682 28.6823 40.9391 28.5792 40.6957 28.5316C40.4523 28.484 40.2012 28.4931 39.9619 28.5582L39.9038 28.5732L27.3413 31.4625C27.2311 31.4871 27.1185 31.4997 27.0056 31.5H21C20.6022 31.5 20.2206 31.342 19.9393 31.0607C19.658 30.7794 19.5 30.3979 19.5 30C19.5 29.6022 19.658 29.2207 19.9393 28.9394C20.2206 28.6581 20.6022 28.5 21 28.5H26.25C26.8467 28.5 27.419 28.263 27.841 27.841C28.2629 27.4191 28.5 26.8468 28.5 26.25C28.5 25.6533 28.2629 25.081 27.841 24.659C27.419 24.2371 26.8467 24 26.25 24H16.8638C16.4696 23.9988 16.0792 24.0759 15.7152 24.2268C15.3511 24.3778 15.0207 24.5996 14.7431 24.8794L10.5 29.1207V37.5H22.3125L34.0181 34.5732L41.1431 31.5394C41.4025 31.4028 41.6194 31.1977 41.7705 30.9465C41.9215 30.6953 42.0009 30.4075 42 30.1144ZM31.5 15.75C31.5 17.0851 31.8959 18.3901 32.6376 19.5001C33.3793 20.6102 34.4335 21.4753 35.6669 21.9862C36.9003 22.4971 38.2575 22.6308 39.5669 22.3703C40.8762 22.1099 42.079 21.467 43.023 20.523C43.967 19.579 44.6099 18.3763 44.8703 17.0669C45.1308 15.7575 44.9971 14.4003 44.4862 13.1669C43.9753 11.9335 43.1101 10.8793 42.0001 10.1376C40.8901 9.39592 39.585 9.00003 38.25 9.00003C36.4598 9.00003 34.7429 9.71119 33.477 10.9771C32.2112 12.2429 31.5 13.9598 31.5 15.75Z" fill="#E8CE6A"/>
</svg>
