<svg width="48" height="48" viewBox="0 0 48 48" fill="none" xmlns="http://www.w3.org/2000/svg">
<path d="M43.5299 17.631L12.6239 14.211L10.7399 7.07249C10.6744 6.83307 10.5323 6.62165 10.3354 6.47052C10.1385 6.31939 9.89759 6.23684 9.64937 6.23549H5.00987C4.84219 6.00977 4.62452 5.82594 4.3739 5.69842C4.12329 5.57091 3.84655 5.50316 3.56538 5.50049C3.07148 5.50049 2.59781 5.69669 2.24857 6.04593C1.89933 6.39517 1.70313 6.86884 1.70312 7.36274C1.70313 7.85664 1.89933 8.33031 2.24857 8.67955C2.59781 9.02879 3.07148 9.22499 3.56538 9.22499C4.16538 9.22499 4.67238 8.92499 5.01288 8.48699H8.78088L16.6259 38.187C15.7701 39.0979 15.2929 40.3002 15.2909 41.55C15.2903 42.1987 15.4176 42.8412 15.6655 43.4406C15.9135 44.0401 16.2771 44.5848 16.7358 45.0435C17.1944 45.5023 17.739 45.8662 18.3384 46.1143C18.9378 46.3624 19.5802 46.4899 20.2289 46.4895C21.5396 46.4899 22.7968 45.9698 23.7242 45.0435C24.6516 44.1173 25.1732 42.8607 25.1744 41.55C25.1718 41.1743 25.125 40.8002 25.0349 40.4355H33.3344C33.2456 40.8004 33.1993 41.1744 33.1964 41.55C33.1964 44.28 35.4104 46.4895 38.1404 46.4895C40.8704 46.4895 43.0799 44.28 43.0799 41.55C43.0803 40.239 42.56 38.9816 41.6334 38.0541C40.7068 37.1267 39.4498 36.6053 38.1389 36.6045C36.7139 36.6045 35.4389 37.2195 34.5359 38.184H23.8319C23.3725 37.6867 22.8153 37.2898 22.1953 37.018C21.5753 36.7461 20.9058 36.6054 20.2289 36.6045C19.6589 36.6045 19.1219 36.7215 18.6134 36.8985L18.3404 35.8695H40.2149C41.0555 35.8523 41.866 35.5531 42.5162 35.0199C43.1663 34.4867 43.6184 33.7505 43.7999 32.9295L46.1624 21.2325C46.2022 21.0279 46.2223 20.8199 46.2224 20.6115C46.2235 19.869 45.9486 19.1526 45.451 18.6015C44.9534 18.0504 44.2686 17.7054 43.5299 17.631ZM38.1419 41.991C38.0244 41.9906 37.9117 41.944 37.8283 41.8611C37.745 41.7783 37.6976 41.666 37.6964 41.5485C37.7009 41.2995 37.8989 41.1015 38.1434 41.1015C38.3879 41.1015 38.5859 41.2995 38.5889 41.547C38.5873 41.6642 38.5397 41.7762 38.4564 41.8587C38.373 41.9412 38.2606 41.9876 38.1434 41.988L38.1419 41.991ZM40.8119 30.7485L42.2339 29.3235L41.7569 31.6935L40.8119 30.7485ZM19.1324 17.193L20.6849 18.75L18.7499 20.685L16.8104 18.75L18.4409 17.118L19.1309 17.193H19.1324ZM25.8794 17.94L26.6864 18.75L24.7514 20.685L22.8119 18.75L23.8439 17.715L25.8794 17.94ZM14.4449 21.114L15.7499 19.812L17.6849 21.75L15.7499 23.685L14.9024 22.8405L14.4464 21.1125L14.4449 21.114ZM14.0024 19.434L13.5104 17.574L14.6879 18.7515L14.0024 19.434ZM32.6849 24.75L30.7499 26.685L28.8104 24.75L30.7484 22.8105L32.6834 24.7485L32.6849 24.75ZM31.8104 21.75L33.7484 19.812L35.6834 21.75L33.7484 23.688L31.8089 21.75H31.8104ZM27.7499 23.685L25.8104 21.75L27.7484 19.8105L29.6834 21.7485L27.7484 23.6835L27.7499 23.685ZM26.6849 24.75L24.7499 26.685L22.8119 24.75L24.7499 22.8105L26.6849 24.75ZM21.7499 23.685L19.8104 21.75L21.7484 19.8105L23.6834 21.7485L21.7484 23.6835L21.7499 23.685ZM20.6849 24.75L18.7499 26.685L16.8104 24.75L18.7484 22.8105L20.6834 24.7485L20.6849 24.75ZM15.7499 25.8105L17.6849 27.7485L16.5089 28.923L15.6989 25.857L15.7484 25.8075L15.7499 25.8105ZM16.9529 30.606L18.7484 28.8105L20.6834 30.7485L18.7484 32.6835L17.0534 30.9885L16.9514 30.6045L16.9529 30.606ZM19.8119 27.7485L21.7469 25.809L23.6864 27.747L21.7514 29.682L19.8134 27.747L19.8119 27.7485ZM24.7499 28.809L26.6879 30.747L24.7499 32.682L22.8119 30.747L24.7499 28.809ZM25.8119 27.747L27.7499 25.8075L29.6849 27.7455L27.7499 29.6805L25.8119 27.747ZM30.7469 28.8075L32.6864 30.7455L30.7514 32.6805L28.8134 30.7425L30.7484 28.8075H30.7469ZM31.8119 27.7455L33.7469 25.806L35.6864 27.744L33.7514 29.679L31.8119 27.7455ZM34.8119 24.7455L36.7469 22.806L38.6864 24.744L36.7514 26.679L34.8119 24.7455ZM37.8119 21.7455L39.7469 19.806L41.6849 21.75L39.7499 23.688L37.8104 21.7485L37.8119 21.7455ZM36.7469 20.6835L35.0144 18.9495L38.1374 19.2945L36.7484 20.6835H36.7469ZM32.6879 18.75L30.7529 20.688L28.8134 18.75L29.2484 18.315L32.6279 18.69L32.6879 18.75ZM21.7529 17.685L21.5249 17.46L21.9344 17.505L21.7544 17.685H21.7529ZM15.7529 17.688L14.7779 16.713L16.5329 16.908L15.7529 17.688ZM21.7529 31.8105L23.5604 33.618H19.9454L21.7529 31.8105ZM27.7529 31.8105L29.5604 33.6195H25.9424L27.7514 31.8105H27.7529ZM33.7529 31.8105L35.5634 33.621H31.9424L33.7514 31.8105H33.7529ZM34.8134 30.7485L36.7514 28.809L38.6864 30.747L36.7514 32.682L34.8119 30.747L34.8134 30.7485ZM37.8134 27.7485L39.7514 25.8105L41.6864 27.7455L39.7514 29.685L37.8119 27.75L37.8134 27.7485ZM42.7514 26.6835L40.8134 24.7485L42.7484 22.8105L43.4159 23.4765L42.7709 26.6625L42.7499 26.685L42.7514 26.6835ZM43.5014 19.9335L42.7514 20.6835L41.7614 19.698L43.2869 19.866C43.3679 19.878 43.4369 19.905 43.5029 19.932L43.5014 19.9335ZM20.2319 41.9895C20.1184 41.9829 20.0117 41.9332 19.9337 41.8505C19.8557 41.7678 19.8122 41.6584 19.8122 41.5447C19.8122 41.4311 19.8557 41.3217 19.9337 41.239C20.0117 41.1563 20.1184 41.1066 20.2319 41.1C20.345 41.1066 20.4513 41.1561 20.529 41.2385C20.6068 41.3209 20.6501 41.43 20.6501 41.5432C20.6501 41.6565 20.6068 41.7655 20.529 41.8479C20.4513 41.9303 20.345 41.9799 20.2319 41.9865V41.9895ZM40.2164 33.6195H37.9409L39.7514 31.809L41.1464 33.204C40.8659 33.459 40.5119 33.639 40.2164 33.6195Z" fill="#E8CE6A"/>
</svg>
